<svg xmlns="http://www.w3.org/2000/svg" xmlns:xlink="http://www.w3.org/1999/xlink" width="500" zoomAndPan="magnify" viewBox="0 0 375 374.999991" height="500" preserveAspectRatio="xMidYMid meet" version="1.0"><defs><clipPath id="id1"><path d="M 69 18.214844 L 306 18.214844 L 306 356.464844 L 69 356.464844 Z M 69 18.214844 " clip-rule="nonzero"/></clipPath></defs><g clip-path="url(#id1)"><path fill="#000000" d="M 187.5 18.214844 C 122.070312 18.214844 69 71.234375 69 136.601562 C 69 225.390625 187.5 356.464844 187.5 356.464844 C 187.5 356.464844 305.996094 225.390625 305.996094 136.601562 C 305.996094 71.234375 252.925781 18.214844 187.5 18.214844 Z M 187.5 178.882812 C 164.136719 178.882812 145.179688 159.941406 145.179688 136.601562 C 145.179688 113.261719 164.136719 94.320312 187.5 94.320312 C 210.859375 94.320312 229.820312 113.261719 229.820312 136.601562 C 229.820312 159.941406 210.859375 178.882812 187.5 178.882812 Z M 187.5 178.882812 " fill-opacity="1" fill-rule="nonzero"/></g></svg>